<svg width="36" height="36" viewBox="0 0 36 36" fill="none" xmlns="http://www.w3.org/2000/svg">
<g id="business_center">
<mask id="mask0_74_1917" style="mask-type:alpha" maskUnits="userSpaceOnUse" x="0" y="0" width="36" height="36">
<rect id="Bounding box" width="36" height="36" fill="#D9D9D9"/>
</mask>
<g mask="url(#mask0_74_1917)">
<path id="business_center_2" d="M5.25 31.5C4.65 31.5 4.125 31.275 3.675 30.825C3.225 30.375 3 29.85 3 29.25V22.0875H14.6625V24.3375H21.4125V22.0875H33V29.25C33 29.85 32.775 30.375 32.325 30.825C31.875 31.275 31.35 31.5 30.75 31.5H5.25ZM16.9125 22.0875V19.8375H19.1625V22.0875H16.9125ZM3 19.8375V11.25C3 10.65 3.225 10.125 3.675 9.675C4.125 9.225 4.65 9 5.25 9H12V5.25C12 4.65 12.225 4.125 12.675 3.675C13.125 3.225 13.65 3 14.25 3H21.75C22.35 3 22.875 3.225 23.325 3.675C23.775 4.125 24 4.65 24 5.25V9H30.75C31.35 9 31.875 9.225 32.325 9.675C32.775 10.125 33 10.65 33 11.25V19.8375H21.4125V17.5875H14.6625V19.8375H3ZM14.25 9H21.75V5.25H14.25V9Z" fill="#1C1B1F"/>
</g>
</g>
</svg>
