<svg width="36" height="36" viewBox="0 0 36 36" fill="none" xmlns="http://www.w3.org/2000/svg">
<g id="diversity_4">
<mask id="mask0_74_1353" style="mask-type:alpha" maskUnits="userSpaceOnUse" x="0" y="0" width="36" height="36">
<rect id="Bounding box" width="36" height="36" fill="#F1F1F2"/>
</mask>
<g mask="url(#mask0_74_1353)">
<path id="diversity_4_2" d="M18.5625 33L21.0375 30.75C24.0625 28 26.0625 25.925 27.0375 24.525C28.0125 23.125 28.5 21.6375 28.5 20.0625C28.5 19.3875 28.3938 18.7687 28.1813 18.2062C27.9688 17.6437 27.6875 17.075 27.3375 16.5H30.75C31.375 16.5 31.9062 16.7188 32.3438 17.1562C32.7812 17.5938 33 18.125 33 18.75V33H18.5625ZM3 33V18.75C3 18.125 3.2125 17.5938 3.6375 17.1562C4.0625 16.7188 4.6 16.5 5.25 16.5H8.6625C8.2875 17.025 8 17.5875 7.8 18.1875C7.6 18.7875 7.5 19.4125 7.5 20.0625C7.5 21.6375 7.975 23.1125 8.925 24.4875C9.875 25.8625 11.8875 27.95 14.9625 30.75L17.4375 33H3ZM28.5 15C27.225 15 26.1562 14.5688 25.2938 13.7063C24.4312 12.8438 24 11.775 24 10.5C24 9.25 24.4312 8.1875 25.2938 7.3125C26.1562 6.4375 27.225 6 28.5 6C29.75 6 30.8125 6.4375 31.6875 7.3125C32.5625 8.1875 33 9.25 33 10.5C33 11.775 32.5625 12.8438 31.6875 13.7063C30.8125 14.5688 29.75 15 28.5 15ZM18 13.5C16.525 13.5 15.2812 12.9938 14.2688 11.9813C13.2563 10.9688 12.75 9.725 12.75 8.25C12.75 6.8 13.2563 5.5625 14.2688 4.5375C15.2812 3.5125 16.525 3 18 3C19.45 3 20.6875 3.5125 21.7125 4.5375C22.7375 5.5625 23.25 6.8 23.25 8.25C23.25 9.725 22.7375 10.9688 21.7125 11.9813C20.6875 12.9938 19.45 13.5 18 13.5ZM9.75 20.0625C9.75 21.2125 10.3063 22.4937 11.4188 23.9062C12.5312 25.3188 14.725 27.5125 18 30.4875C21.225 27.5625 23.4062 25.3938 24.5438 23.9813C25.6812 22.5688 26.25 21.2625 26.25 20.0625C26.25 18.8625 25.8438 17.8438 25.0312 17.0063C24.2188 16.1688 23.225 15.75 22.05 15.75C21.375 15.75 20.7563 15.8938 20.1938 16.1813C19.6313 16.4688 19.125 16.825 18.675 17.25L18 17.925L17.2875 17.25C16.8375 16.85 16.3312 16.5 15.7687 16.2C15.2062 15.9 14.6 15.75 13.95 15.75C12.75 15.75 11.75 16.1688 10.95 17.0063C10.15 17.8438 9.75 18.8625 9.75 20.0625ZM7.5 15C6.225 15 5.15625 14.5688 4.29375 13.7063C3.43125 12.8438 3 11.775 3 10.5C3 9.25 3.43125 8.1875 4.29375 7.3125C5.15625 6.4375 6.225 6 7.5 6C8.75 6 9.8125 6.4375 10.6875 7.3125C11.5625 8.1875 12 9.25 12 10.5C12 11.775 11.5625 12.8438 10.6875 13.7063C9.8125 14.5688 8.75 15 7.5 15Z" fill="#2B0806"/>
</g>
</g>
</svg>
