<svg width="36" height="36" viewBox="0 0 36 36" fill="none" xmlns="http://www.w3.org/2000/svg">
<g id="forum">
<mask id="mask0_339_179" style="mask-type:alpha" maskUnits="userSpaceOnUse" x="0" y="0" width="36" height="36">
<rect id="Bounding box" width="36" height="36" fill="#D9D9D9"/>
</mask>
<g mask="url(#mask0_339_179)">
<path id="forum_2" d="M10.5375 27C10.1875 27 9.84375 26.825 9.50625 26.475C9.16875 26.125 9 25.775 9 25.425V21.75H27.75V9H31.5C31.85 9 32.1875 9.175 32.5125 9.525C32.8375 9.875 33 10.2375 33 10.6125V32.9625L27.0375 27H10.5375ZM3 25.5V4.575C3 4.225 3.1625 3.875 3.4875 3.525C3.8125 3.175 4.15 3 4.5 3H23.9625C24.3375 3 24.6875 3.16875 25.0125 3.50625C25.3375 3.84375 25.5 4.2 25.5 4.575V17.925C25.5 18.275 25.3375 18.625 25.0125 18.975C24.6875 19.325 24.3375 19.5 23.9625 19.5H9L3 25.5Z" fill="#2B0806"/>
</g>
</g>
</svg>
