<svg width="25" height="24" viewBox="0 0 25 24" fill="none" xmlns="http://www.w3.org/2000/svg">
<g id="call">
<mask id="mask0_416_24" style="mask-type:alpha" maskUnits="userSpaceOnUse" x="0" y="0" width="25" height="24">
<rect id="Bounding box" x="0.773926" width="24" height="24" fill="#D9D9D9"/>
</mask>
<g mask="url(#mask0_416_24)">
<path id="call_2" d="M20.7239 21C18.6406 21 16.5823 20.5458 14.5489 19.6375C12.5156 18.7292 10.6656 17.4417 8.99893 15.775C7.33226 14.1083 6.04476 12.2583 5.13643 10.225C4.22809 8.19167 3.77393 6.13333 3.77393 4.05C3.77393 3.75 3.87393 3.5 4.07393 3.3C4.27393 3.1 4.52393 3 4.82393 3H8.87393C9.10726 3 9.31559 3.07917 9.49893 3.2375C9.68226 3.39583 9.79059 3.58333 9.82393 3.8L10.4739 7.3C10.5073 7.56667 10.4989 7.79167 10.4489 7.975C10.3989 8.15833 10.3073 8.31667 10.1739 8.45L7.74893 10.9C8.08226 11.5167 8.47809 12.1125 8.93643 12.6875C9.39476 13.2625 9.89893 13.8167 10.4489 14.35C10.9656 14.8667 11.5073 15.3458 12.0739 15.7875C12.6406 16.2292 13.2406 16.6333 13.8739 17L16.2239 14.65C16.3739 14.5 16.5698 14.3875 16.8114 14.3125C17.0531 14.2375 17.2906 14.2167 17.5239 14.25L20.9739 14.95C21.2073 15.0167 21.3989 15.1375 21.5489 15.3125C21.6989 15.4875 21.7739 15.6833 21.7739 15.9V19.95C21.7739 20.25 21.6739 20.5 21.4739 20.7C21.2739 20.9 21.0239 21 20.7239 21ZM6.79893 9L8.44893 7.35L8.02393 5H5.79893C5.88226 5.68333 5.99893 6.35833 6.14893 7.025C6.29893 7.69167 6.51559 8.35 6.79893 9ZM15.7489 17.95C16.3989 18.2333 17.0614 18.4583 17.7364 18.625C18.4114 18.7917 19.0906 18.9 19.7739 18.95V16.75L17.4239 16.275L15.7489 17.95Z" fill="white"/>
</g>
</g>
</svg>
