<svg width="36" height="36" viewBox="0 0 36 36" fill="none" xmlns="http://www.w3.org/2000/svg">
<g id="handshake">
<mask id="mask0_74_1881" style="mask-type:alpha" maskUnits="userSpaceOnUse" x="0" y="0" width="36" height="36">
<rect id="Bounding box" width="36" height="36" fill="#F1F1F2"/>
</mask>
<g mask="url(#mask0_74_1881)">
<path id="handshake_2" d="M18.15 31.5C17.725 31.5 17.3625 31.3527 17.0625 31.058C16.7625 30.7633 16.6125 30.3981 16.6125 29.9625C16.6125 29.7875 16.65 29.6063 16.725 29.4188C16.8 29.2313 16.9125 29.0625 17.0625 28.9125L24 21.975L23.2125 21.1875L16.2851 28.125C16.1345 28.275 15.9714 28.3875 15.7957 28.4625C15.62 28.5375 15.4317 28.575 15.231 28.575C14.8043 28.575 14.4466 28.4312 14.158 28.1437C13.8693 27.8562 13.725 27.5 13.725 27.075C13.725 26.825 13.7625 26.6187 13.8375 26.4562C13.9125 26.2937 14.0125 26.15 14.1375 26.025L21.075 19.0875L20.2875 18.3L13.35 25.2C13.2 25.35 13.0375 25.4625 12.8625 25.5375C12.6875 25.6125 12.4875 25.65 12.2625 25.65C11.8625 25.65 11.5125 25.5 11.2125 25.2C10.9125 24.9 10.7625 24.55 10.7625 24.15C10.7625 23.95 10.8 23.7625 10.875 23.5875C10.95 23.4125 11.0625 23.25 11.2125 23.1L18.15 16.1625L17.3625 15.375L10.4625 22.3125C10.3375 22.4375 10.1875 22.5375 10.0125 22.6125C9.8375 22.6875 9.625 22.725 9.375 22.725C8.95 22.725 8.59375 22.5849 8.30625 22.3046C8.01875 22.0242 7.875 21.6769 7.875 21.2625C7.875 21.0625 7.9125 20.875 7.9875 20.7C8.0625 20.525 8.175 20.3625 8.325 20.2125L16.6875 11.85L21.45 16.6125C21.725 16.8875 22.0312 17.1188 22.3688 17.3063C22.7063 17.4938 23.1125 17.5875 23.5875 17.5875C24.3875 17.5875 25.0625 17.3313 25.6125 16.8188C26.1625 16.3063 26.4375 15.6125 26.4375 14.7375C26.4375 14.3875 26.3687 14.0438 26.2313 13.7063C26.0938 13.3688 25.8625 13.0375 25.5375 12.7125L18.825 6L19.05 5.7375C19.475 5.3375 19.95 5.03125 20.475 4.81875C21 4.60625 21.525 4.5 22.05 4.5C22.7 4.5 23.3 4.60625 23.85 4.81875C24.4 5.03125 24.9 5.3625 25.35 5.8125L31.6875 12.1875C32.1375 12.6375 32.4688 13.1375 32.6813 13.6875C32.8938 14.2375 33 14.875 33 15.6C33 16.1 32.8875 16.6063 32.6625 17.1188C32.4375 17.6313 32.1125 18.1 31.6875 18.525L19.2 31.05C19 31.25 18.825 31.375 18.675 31.425C18.525 31.475 18.35 31.5 18.15 31.5ZM6.3375 20.55L4.3125 18.525C3.8875 18.125 3.5625 17.65 3.3375 17.1C3.1125 16.55 3 15.975 3 15.375C3 14.725 3.125 14.125 3.375 13.575C3.625 13.025 3.9375 12.5625 4.3125 12.1875L10.65 5.8125C11.05 5.4125 11.525 5.09375 12.075 4.85625C12.625 4.61875 13.1625 4.5 13.6875 4.5C14.3625 4.5 14.9625 4.59375 15.4875 4.78125C16.0125 4.96875 16.525 5.3125 17.025 5.8125L24.7125 13.5C24.9375 13.725 25.0938 13.9375 25.1813 14.1375C25.2688 14.3375 25.3125 14.5375 25.3125 14.7375C25.3125 15.2375 25.15 15.65 24.825 15.975C24.5 16.3 24.0875 16.4625 23.5875 16.4625C23.3625 16.4625 23.1313 16.4062 22.8937 16.2938C22.6562 16.1813 22.425 16.0125 22.2 15.7875L16.65 10.2375L6.3375 20.55Z" fill="#2B0806"/>
</g>
</g>
</svg>
