<svg width="25" height="24" viewBox="0 0 25 24" fill="none" xmlns="http://www.w3.org/2000/svg">
<g id="Icons / stethoscope">
<path id="Vector" d="M14 22C12.2 22 10.6667 21.3667 9.4 20.1C8.13333 18.8333 7.5 17.3 7.5 15.5V14.925C6.06667 14.6917 4.875 14.0208 3.925 12.9125C2.975 11.8042 2.5 10.5 2.5 9V3H5.5V2H7.5V6H5.5V5H4.5V9C4.5 10.1 4.89167 11.0417 5.675 11.825C6.45833 12.6083 7.4 13 8.5 13C9.6 13 10.5417 12.6083 11.325 11.825C12.1083 11.0417 12.5 10.1 12.5 9V5H11.5V6H9.5V2H11.5V3H14.5V9C14.5 10.5 14.025 11.8042 13.075 12.9125C12.125 14.0208 10.9333 14.6917 9.5 14.925V15.5C9.5 16.75 9.9375 17.8125 10.8125 18.6875C11.6875 19.5625 12.75 20 14 20C15.25 20 16.3125 19.5625 17.1875 18.6875C18.0625 17.8125 18.5 16.75 18.5 15.5V13.825C17.9167 13.625 17.4375 13.2667 17.0625 12.75C16.6875 12.2333 16.5 11.65 16.5 11C16.5 10.1667 16.7917 9.45833 17.375 8.875C17.9583 8.29167 18.6667 8 19.5 8C20.3333 8 21.0417 8.29167 21.625 8.875C22.2083 9.45833 22.5 10.1667 22.5 11C22.5 11.65 22.3125 12.2333 21.9375 12.75C21.5625 13.2667 21.0833 13.625 20.5 13.825V15.5C20.5 17.3 19.8667 18.8333 18.6 20.1C17.3333 21.3667 15.8 22 14 22Z" fill="#2B0806"/>
</g>
</svg>
