<svg width="25" height="24" viewBox="0 0 25 24" fill="none" xmlns="http://www.w3.org/2000/svg">
<g id="Icons / local_dining">
<path id="Vector" d="M4.87461 21L3.47461 19.6L13.7246 9.35C13.4246 8.65 13.3829 7.85833 13.5996 6.975C13.8163 6.09167 14.2913 5.3 15.0246 4.6C15.9079 3.71667 16.8913 3.2 17.9746 3.05C19.0579 2.9 19.9413 3.16667 20.6246 3.85C21.3079 4.53333 21.5746 5.41667 21.4246 6.5C21.2746 7.58333 20.7579 8.56667 19.8746 9.45C19.1746 10.1833 18.3829 10.6583 17.4996 10.875C16.6163 11.0917 15.8246 11.05 15.1246 10.75L13.8746 12L21.4746 19.6L20.0746 21L12.4746 13.45L4.87461 21ZM7.82461 12.45L4.82461 9.45C3.92461 8.55 3.47461 7.475 3.47461 6.225C3.47461 4.975 3.92461 3.9 4.82461 3L11.0246 9.25L7.82461 12.45Z" fill="#2B0806"/>
</g>
</svg>
