<svg width="25" height="24" viewBox="0 0 25 24" fill="none" xmlns="http://www.w3.org/2000/svg">
<g id="Icons / car_rental">
<path id="Vector" d="M8.5 7C7.66667 7 6.95833 6.70833 6.375 6.125C5.79167 5.54167 5.5 4.83333 5.5 4C5.5 3.16667 5.79167 2.45833 6.375 1.875C6.95833 1.29167 7.66667 1 8.5 1C9.13333 1 9.70833 1.1875 10.225 1.5625C10.7417 1.9375 11.1167 2.41667 11.35 3H19.5V5H18.5V7H16.5V5H11.35C11.1167 5.58333 10.7417 6.0625 10.225 6.4375C9.70833 6.8125 9.13333 7 8.5 7ZM8.5 5C8.78333 5 9.02083 4.90417 9.2125 4.7125C9.40417 4.52083 9.5 4.28333 9.5 4C9.5 3.71667 9.40417 3.47917 9.2125 3.2875C9.02083 3.09583 8.78333 3 8.5 3C8.21667 3 7.97917 3.09583 7.7875 3.2875C7.59583 3.47917 7.5 3.71667 7.5 4C7.5 4.28333 7.59583 4.52083 7.7875 4.7125C7.97917 4.90417 8.21667 5 8.5 5ZM9.5 17.5C9.78333 17.5 10.0208 17.4042 10.2125 17.2125C10.4042 17.0208 10.5 16.7833 10.5 16.5C10.5 16.2167 10.4042 15.9792 10.2125 15.7875C10.0208 15.5958 9.78333 15.5 9.5 15.5C9.21667 15.5 8.97917 15.5958 8.7875 15.7875C8.59583 15.9792 8.5 16.2167 8.5 16.5C8.5 16.7833 8.59583 17.0208 8.7875 17.2125C8.97917 17.4042 9.21667 17.5 9.5 17.5ZM15.5 17.5C15.7833 17.5 16.0208 17.4042 16.2125 17.2125C16.4042 17.0208 16.5 16.7833 16.5 16.5C16.5 16.2167 16.4042 15.9792 16.2125 15.7875C16.0208 15.5958 15.7833 15.5 15.5 15.5C15.2167 15.5 14.9792 15.5958 14.7875 15.7875C14.5958 15.9792 14.5 16.2167 14.5 16.5C14.5 16.7833 14.5958 17.0208 14.7875 17.2125C14.9792 17.4042 15.2167 17.5 15.5 17.5ZM5.5 14.6L7.15 9.8C7.23333 9.56667 7.37083 9.375 7.5625 9.225C7.75417 9.075 7.96667 9 8.2 9H16.8C17.0333 9 17.2458 9.075 17.4375 9.225C17.6292 9.375 17.7667 9.56667 17.85 9.8L19.5 14.6V21.2C19.5 21.4333 19.425 21.625 19.275 21.775C19.125 21.925 18.9333 22 18.7 22H18.3C18.0667 22 17.875 21.925 17.725 21.775C17.575 21.625 17.5 21.4333 17.5 21.2V20H7.5V21.2C7.5 21.4333 7.425 21.625 7.275 21.775C7.125 21.925 6.93333 22 6.7 22H6.3C6.06667 22 5.875 21.925 5.725 21.775C5.575 21.625 5.5 21.4333 5.5 21.2V14.6ZM8.15 13H16.85L16.15 11H8.85L8.15 13Z" fill="#2B0806"/>
</g>
</svg>
