<svg width="197" height="50" viewBox="0 0 197 50" fill="none" xmlns="http://www.w3.org/2000/svg">
<g id="Logo / Black">
<g id="Vector">
<path fill-rule="evenodd" clip-rule="evenodd" d="M50 25C50 11.1928 38.8072 0 25 0C11.1928 0 0 11.1928 0 25C0 38.8072 11.1928 50 25 50C38.8072 50 50 38.8072 50 25ZM38.7578 18.7228C28.5439 18.3444 21.5217 18.3444 11.3078 18.7228H11.3089C11.0172 18.7339 10.7722 18.9694 10.7628 19.2489C10.6555 22.4533 10.6411 32.5639 10.7189 35.7683C10.7255 36.0478 10.9689 36.2811 11.2617 36.2894C21.5067 36.5733 28.56 36.5733 38.805 36.2894C39.0972 36.2811 39.3411 36.0478 39.3478 35.7683C39.425 32.5639 39.4105 22.4533 39.3039 19.2489C39.2944 18.9694 39.0494 18.7339 38.7578 18.7228ZM29.4028 14.3394C29.4394 15.5261 29.4678 16.7122 29.4928 17.8989H29.4922C30.1828 17.9094 30.8794 17.9217 31.5867 17.9361C31.5472 16.4056 31.4908 14.5792 31.4176 12.2053L31.4083 11.905C31.3994 11.6133 31.1661 11.3683 30.8872 11.3589C27.69 11.2522 22.3733 11.2522 19.1761 11.3589C18.8978 11.3683 18.6639 11.6133 18.655 11.905L18.6458 12.2025C18.5725 14.5783 18.5161 16.4061 18.4767 17.9372C19.1839 17.9222 19.8805 17.91 20.5711 17.9C20.5961 16.7128 20.625 15.5261 20.6617 14.3394C20.6678 14.1405 20.8278 13.9728 21.0189 13.9667C23.21 13.8939 26.8544 13.8939 29.0455 13.9667C29.2367 13.9728 29.3967 14.14 29.4028 14.3394Z" fill="white"/>
<path d="M31.3139 29.4022C31.3112 29.5122 31.215 29.6044 31.0995 29.6078C29.8078 29.6433 28.5156 29.6667 27.2239 29.6794C27.2084 30.9267 27.1806 32.1961 27.1389 33.5289C27.135 33.6439 27.0428 33.7405 26.9323 33.7439C25.6656 33.7861 24.3984 33.7861 23.1317 33.7439C23.0212 33.74 22.9289 33.6439 22.925 33.5289C22.8839 32.1967 22.8556 30.9267 22.84 29.6794C21.5484 29.6667 20.2562 29.6433 18.9645 29.6078C18.8489 29.6044 18.7528 29.5128 18.75 29.4022C18.7195 28.1389 18.725 26.8761 18.7673 25.6128C18.7712 25.5028 18.8678 25.41 18.9828 25.4055C20.2684 25.3578 21.5539 25.3272 22.84 25.31C22.8556 24.0617 22.8834 22.7905 22.925 21.4567C22.9289 21.3417 23.0212 21.245 23.1317 21.2417C24.3984 21.1994 25.6656 21.1994 26.9323 21.2417C27.0428 21.2455 27.135 21.3417 27.1389 21.4567C27.18 22.7905 27.2084 24.0617 27.2239 25.31C28.5095 25.3272 29.795 25.3578 31.0812 25.4055C31.1962 25.41 31.2928 25.5028 31.2967 25.6128C31.3389 26.8761 31.3445 28.1389 31.3139 29.4022Z" fill="white"/>
<path d="M73.6938 31.8186H76.227V26.6149H78.6619L81.4306 31.8186H84.2583L81.3914 26.6149C81.1164 26.124 80.9201 25.9276 80.9201 25.9276V25.8884C82.3928 25.2993 83.2765 23.748 83.2765 22.0789C83.2765 20.233 82.3928 18.8978 80.9986 18.2694C80.3899 17.9945 79.7026 17.8767 78.1906 17.8767H73.6938V31.8186ZM76.227 24.4156V20.0563H78.1513C80.1346 20.0563 80.7041 20.8811 80.7041 22.2163C80.7041 23.5516 79.8597 24.4156 78.5048 24.4156H76.227ZM84.9967 26.8113C84.9967 29.8942 87.4513 32.0542 90.5146 32.0542C93.5779 32.0542 96.0128 29.8942 96.0128 26.8113C96.0128 23.7283 93.5583 21.5683 90.495 21.5683C87.4317 21.5683 84.9967 23.748 84.9967 26.8113ZM87.5299 26.8113C87.5299 24.9654 88.8848 23.6891 90.5146 23.6891C92.1444 23.6891 93.4797 24.9654 93.4797 26.8113C93.4797 28.6571 92.1248 29.9335 90.5146 29.9335C88.9044 29.9335 87.5299 28.6767 87.5299 26.8113ZM97.2815 26.8113C97.2815 29.9138 99.0095 32.0542 101.719 32.0542C104.017 32.0542 104.861 30.3458 104.861 30.3458H104.9C104.9 30.3458 104.861 30.6208 104.861 30.9938V31.8186H107.218V17.8767H104.724V22.2752C104.724 22.5894 104.743 22.8447 104.743 22.8447H104.704C104.704 22.8447 104.017 21.5683 101.818 21.5683C99.1666 21.5683 97.2815 23.6302 97.2815 26.8113ZM99.7949 26.8113C99.7949 24.828 100.934 23.7087 102.308 23.7087C103.978 23.7087 104.802 25.2404 104.802 26.7916C104.802 29.0106 103.585 29.9531 102.289 29.9531C100.816 29.9531 99.7949 28.716 99.7949 26.8113ZM109.692 20.0956H112.166V17.8767H109.692V20.0956ZM109.692 31.8186H112.186V21.804H109.692V31.8186ZM114.638 31.8186H117.132V27.2236C117.132 26.7524 117.171 26.3007 117.309 25.8884C117.682 24.6905 118.664 23.8462 119.999 23.8462C121.334 23.8462 121.589 24.6709 121.589 25.8884V31.8186H124.064V25.3778C124.064 22.7269 122.807 21.5683 120.588 21.5683C118.565 21.5683 117.466 22.8054 117.034 23.6498H116.994C116.994 23.6498 117.034 23.3356 117.034 22.9625V21.804H114.638V31.8186ZM126.467 31.8186H128.961V27.2236C128.961 26.7524 129 26.3007 129.137 25.8884C129.511 24.6905 130.492 23.8462 131.828 23.8462C133.163 23.8462 133.418 24.6709 133.418 25.8884V31.8186H135.892V25.3778C135.892 22.7269 134.636 21.5683 132.417 21.5683C130.394 21.5683 129.295 22.8054 128.863 23.6498H128.823C128.823 23.6498 128.863 23.3356 128.863 22.9625V21.804H126.467V31.8186ZM136.664 35.2942C136.664 35.2942 137.548 35.9422 138.745 35.9422C140.257 35.9422 141.652 35.1568 142.358 33.3306L146.836 21.804H144.106L142.142 27.6164C141.966 28.1466 141.809 28.932 141.809 28.932H141.769C141.769 28.932 141.593 28.1073 141.396 27.5771L139.295 21.804H136.487L140.709 31.6615L140.336 32.5451C139.963 33.4288 139.295 33.8411 138.608 33.8411C138.038 33.8411 137.489 33.4288 137.489 33.4288L136.664 35.2942ZM140.709 20.5669H142.712L144.774 17.8963H142.201L140.709 20.5669ZM153.276 28.6964C153.276 31.5633 154.985 31.9168 156.359 31.9168C156.772 31.9168 157.145 31.8579 157.145 31.8579V29.6782C157.145 29.6782 156.968 29.6978 156.772 29.6978C156.124 29.6978 155.751 29.4229 155.751 28.3233V17.8767H153.276V28.6964ZM157.899 26.8113C157.899 29.6586 159.961 32.0542 163.28 32.0542C165.774 32.0542 167.305 30.6208 167.305 30.6208L166.343 28.8338C166.343 28.8338 165.067 29.9335 163.456 29.9335C161.964 29.9335 160.609 29.0302 160.452 27.2826H167.364C167.364 27.2826 167.423 26.6149 167.423 26.3204C167.423 23.6694 165.872 21.5683 162.985 21.5683C160.099 21.5683 157.899 23.7283 157.899 26.8113ZM160.531 25.5742C160.766 24.2782 161.65 23.4927 162.926 23.4927C164.026 23.4927 164.87 24.2193 164.91 25.5742H160.531ZM161.846 20.5669H163.849L165.911 17.8963H163.339L161.846 20.5669ZM169.377 31.8186H171.871V27.4396H173.167L175.818 31.8186H178.685L175.13 26.3204V26.2811L178.292 21.804H175.523L173.108 25.3385H171.871V17.8767H169.377V31.8186ZM179.006 28.932C179.006 30.9349 180.617 32.0542 182.404 32.0542C184.681 32.0542 185.467 30.2869 185.447 30.2869H185.486C185.486 30.2869 185.447 30.6011 185.447 30.9938V31.8186H187.745V25.5545C187.745 23.0214 186.213 21.5683 183.582 21.5683C181.206 21.5683 179.654 22.8054 179.654 22.8054L180.597 24.5924C180.597 24.5924 181.913 23.6302 183.346 23.6302C184.446 23.6302 185.27 24.0818 185.27 25.3974V25.5349H184.937C183.307 25.5349 179.006 25.7509 179.006 28.932ZM181.52 28.8142C181.52 27.42 183.582 27.2433 184.858 27.2433H185.29V27.4789C185.29 28.6964 184.348 30.1102 183.032 30.1102C182.011 30.1102 181.52 29.4818 181.52 28.8142ZM190.205 31.8186H192.699V27.852C192.699 27.2629 192.758 26.7131 192.915 26.2222C193.386 24.7298 194.584 24.1211 195.644 24.1211C195.978 24.1211 196.233 24.1603 196.233 24.1603V21.7058C196.233 21.7058 196.017 21.6665 195.782 21.6665C194.25 21.6665 193.052 22.8054 192.6 24.2389H192.561C192.561 24.2389 192.6 23.9051 192.6 23.532V21.804H190.205V31.8186ZM192.227 20.5669H194.721L196.547 17.8963H194.486L193.504 19.4869H193.465L192.483 17.8963H190.421L192.227 20.5669Z" fill="white"/>
</g>
</g>
</svg>
