<svg width="25" height="24" viewBox="0 0 25 24" fill="none" xmlns="http://www.w3.org/2000/svg">
<g id="Icons / payments">
<path id="Vector" d="M3.5 20C2.95 20 2.47917 19.8042 2.0875 19.4125C1.69583 19.0208 1.5 18.55 1.5 18V7H3.5V18H20.5V20H3.5ZM7.5 16C6.95 16 6.47917 15.8042 6.0875 15.4125C5.69583 15.0208 5.5 14.55 5.5 14V6C5.5 5.45 5.69583 4.97917 6.0875 4.5875C6.47917 4.19583 6.95 4 7.5 4H21.5C22.05 4 22.5208 4.19583 22.9125 4.5875C23.3042 4.97917 23.5 5.45 23.5 6V14C23.5 14.55 23.3042 15.0208 22.9125 15.4125C22.5208 15.8042 22.05 16 21.5 16H7.5ZM9.5 14C9.5 13.45 9.30417 12.9792 8.9125 12.5875C8.52083 12.1958 8.05 12 7.5 12V14H9.5ZM19.5 14H21.5V12C20.95 12 20.4792 12.1958 20.0875 12.5875C19.6958 12.9792 19.5 13.45 19.5 14ZM14.5 13C15.3333 13 16.0417 12.7083 16.625 12.125C17.2083 11.5417 17.5 10.8333 17.5 10C17.5 9.16667 17.2083 8.45833 16.625 7.875C16.0417 7.29167 15.3333 7 14.5 7C13.6667 7 12.9583 7.29167 12.375 7.875C11.7917 8.45833 11.5 9.16667 11.5 10C11.5 10.8333 11.7917 11.5417 12.375 12.125C12.9583 12.7083 13.6667 13 14.5 13ZM7.5 8C8.05 8 8.52083 7.80417 8.9125 7.4125C9.30417 7.02083 9.5 6.55 9.5 6H7.5V8ZM21.5 8V6H19.5C19.5 6.55 19.6958 7.02083 20.0875 7.4125C20.4792 7.80417 20.95 8 21.5 8Z" fill="#2B0806"/>
</g>
</svg>
