<svg width="36" height="36" viewBox="0 0 36 36" fill="none" xmlns="http://www.w3.org/2000/svg">
<g id="pie_chart">
<mask id="mask0_74_1365" style="mask-type:alpha" maskUnits="userSpaceOnUse" x="0" y="0" width="36" height="36">
<rect id="Bounding box" width="36" height="36" fill="#F1F1F2"/>
</mask>
<g mask="url(#mask0_74_1365)">
<path id="pie_chart_2" d="M19.125 16.8751V5.2876C22.2 5.4876 24.8312 6.70635 27.0187 8.94385C29.2062 11.1813 30.4375 13.8251 30.7125 16.8751H19.125ZM16.875 30.7126C13.6 30.4376 10.8438 29.0751 8.60625 26.6251C6.36875 24.1751 5.25 21.3001 5.25 18.0001C5.25 14.7001 6.36875 11.8251 8.60625 9.3751C10.8438 6.9251 13.6 5.5626 16.875 5.2876V30.7126ZM19.125 30.7126V19.1251H30.7125C30.4375 22.1751 29.2062 24.8188 27.0187 27.0563C24.8312 29.2938 22.2 30.5126 19.125 30.7126Z" fill="#2B0806"/>
</g>
</g>
</svg>
