<svg width="36" height="36" viewBox="0 0 36 36" fill="none" xmlns="http://www.w3.org/2000/svg">
<g id="stethoscope">
<mask id="mask0_74_1908" style="mask-type:alpha" maskUnits="userSpaceOnUse" x="0" y="0" width="36" height="36">
<rect id="Bounding box" width="36" height="36" fill="#D9D9D9"/>
</mask>
<g mask="url(#mask0_74_1908)">
<path id="stethoscope_2" d="M20.25 32.9625C17.45 32.9625 15.125 31.9813 13.275 30.0188C11.425 28.0563 10.5 25.7125 10.5 22.9875V21.675C8.375 21.4 6.59375 20.4562 5.15625 18.8438C3.71875 17.2312 3 15.325 3 13.125V4.5H7.5V3H9.75V8.25H7.5V6.75H5.25V13.125C5.25 14.9 5.86875 16.4062 7.10625 17.6437C8.34375 18.8812 9.85 19.5 11.625 19.5C13.4 19.5 14.9062 18.8812 16.1437 17.6437C17.3812 16.4062 18 14.9 18 13.125V6.75H15.75V8.25H13.5V3H15.75V4.5H20.25V13.125C20.25 15.325 19.5312 17.2312 18.0938 18.8438C16.6562 20.4562 14.875 21.4 12.75 21.675V22.9875C12.75 25.1125 13.4563 26.9312 14.8687 28.4437C16.2812 29.9562 18.075 30.7125 20.25 30.7125C22.275 30.7125 24.0312 29.9625 25.5187 28.4625C27.0063 26.9625 27.75 25.1375 27.75 22.9875V20.1C26.875 19.85 26.1562 19.3625 25.5938 18.6375C25.0312 17.9125 24.75 17.075 24.75 16.125C24.75 14.975 25.15 14 25.95 13.2C26.75 12.4 27.725 12 28.875 12C30.025 12 31 12.4 31.8 13.2C32.6 14 33 14.975 33 16.125C33 17.075 32.7188 17.9125 32.1562 18.6375C31.5938 19.3625 30.875 19.85 30 20.1V22.9875C30 25.7625 29.0437 28.1187 27.1312 30.0563C25.2188 31.9938 22.925 32.9625 20.25 32.9625Z" fill="#1C1B1F"/>
</g>
</g>
</svg>
