<svg width="25" height="24" viewBox="0 0 25 24" fill="none" xmlns="http://www.w3.org/2000/svg">
<g id="Icons / toll">
<path id="Vector" d="M15.5 20C13.2667 20 11.375 19.225 9.825 17.675C8.275 16.125 7.5 14.2333 7.5 12C7.5 9.76667 8.275 7.875 9.825 6.325C11.375 4.775 13.2667 4 15.5 4C17.7333 4 19.625 4.775 21.175 6.325C22.725 7.875 23.5 9.76667 23.5 12C23.5 14.2333 22.725 16.125 21.175 17.675C19.625 19.225 17.7333 20 15.5 20ZM7.5 19.75C5.73333 19.2833 4.29167 18.3333 3.175 16.9C2.05833 15.4667 1.5 13.8333 1.5 12C1.5 10.1667 2.05833 8.53333 3.175 7.1C4.29167 5.66667 5.73333 4.71667 7.5 4.25V6.35C6.3 6.76667 5.33333 7.49167 4.6 8.525C3.86667 9.55833 3.5 10.7167 3.5 12C3.5 13.2833 3.86667 14.4417 4.6 15.475C5.33333 16.5083 6.3 17.2333 7.5 17.65V19.75Z" fill="#2B0806"/>
</g>
</svg>
